<?xml version="1.0" encoding="utf-8"?>
<!-- Generator: Adobe Illustrator 18.1.1, SVG Export Plug-In . SVG Version: 6.00 Build 0)  -->
<!DOCTYPE svg PUBLIC "-//W3C//DTD SVG 1.1//EN" "http://www.w3.org/Graphics/SVG/1.1/DTD/svg11.dtd">
<svg version="1.1"
	 id="adidas" xmlns:cc="http://web.resource.org/cc/" xmlns:rdf="http://www.w3.org/1999/02/22-rdf-syntax-ns#" xmlns:dc="http://purl.org/dc/elements/1.1/" xmlns:sodipodi="http://sodipodi.sourceforge.net/DTD/sodipodi-0.dtd" xmlns:svg="http://www.w3.org/2000/svg" sodipodi:version="0.32" inkscape:version="0.44" sodipodi:docbase="C:\Dokumente und Einstellungen\Andreas\Eigene Dateien\Eigene Bilder\sonstiges\Logos\Vektor\Sports" sodipodi:docname="adidas_klassisches_logo.svg" xmlns:inkscape="http://www.inkscape.org/namespaces/inkscape"
	 xmlns="http://www.w3.org/2000/svg" xmlns:xlink="http://www.w3.org/1999/xlink" x="0px" y="0px" width="585.793px"
	 height="569.617px" viewBox="0 0 585.793 569.617" enable-background="new 0 0 585.793 569.617" xml:space="preserve">
<g>
	<polygon fill="#231F20" points="225.689,296.043 280.242,142.043 243.087,142.043 188.159,296.043 	"/>
</g>
<g>
	<g>
		<path fill="#231F20" d="M138.486,423.421l446.307-186.339L409.09,281.484l6.091-16.075h-40.579l12.189-34.305h32.24l11.793-30.661
			h-33.229l11.109-30.594h33.959l10.048-27.8h-71.38l-51.725,145.413L325.639,207l53.874-64.952h-36.126l-33.23,39.562
			l13.989-39.562H286.76l-54.757,153.995h37.309l15.941-45.454c0,0,5.163-12.904,5.163-0.635v46.089h36.248h3.373h20.798
			l-217.099,54.765c-16.642,3.922-33.697,2.465-47.965-7.826c-34.921-25.134-22.669-70.021-7.16-101.596
			C48.62,275.852,17.872,310.688,5.423,356.835c-5.344,19.917-5.181,41.146,8.276,57.158
			C44.644,450.857,98.509,440.152,138.486,423.421"/>
	</g>
</g>
<g>
	<polygon fill="#231F20" points="121.484,296.043 144.656,231.108 141.148,296.043 182.42,296.043 237.167,142.043 200.105,142.043 
		178.588,201.854 182.258,142.043 139.439,142.043 84.62,296.043 	"/>
</g>
</svg>
